HIERARCHY
ROOT Hips
{
 OFFSET 0.000000 0.000000 0.000000
 CHANNELS 6 Xposition Yposition Zposition Yrotation Xrotation Zrotation
 JOINT Chest
 {
  OFFSET 0.000000 9.585900 0.002600
  CHANNELS 3 Yrotation Xrotation Zrotation
  JOINT Chest2
  {
   OFFSET 0.000000 9.601200 -0.005300
   CHANNELS 3 Yrotation Xrotation Zrotation
   JOINT Chest3
   {
    OFFSET 0.000000 9.561800 0.000000
    CHANNELS 3 Yrotation Xrotation Zrotation
    JOINT Chest4
    {
     OFFSET 0.000000 9.552100 0.000000
     CHANNELS 3 Yrotation Xrotation Zrotation
     JOINT Neck
     {
      OFFSET 0.000000 14.453000 0.000000
      CHANNELS 3 Yrotation Xrotation Zrotation
      JOINT Head
      {
       OFFSET 0.000000 8.936500 -0.011300
       CHANNELS 3 Yrotation Xrotation Zrotation
       End Site
       {
        OFFSET 0.000000 17.073600 -0.006000
       }
      }
     }
     JOINT RightCollar
     {
      OFFSET -2.921100 9.558500 0.000000
      CHANNELS 3 Yrotation Xrotation Zrotation
      JOINT RightShoulder
      {
       OFFSET -13.519700 0.000000 0.000000
       CHANNELS 3 Yrotation Xrotation Zrotation
       JOINT RightElbow
       {
        OFFSET 0.000000 -29.696600 0.000000
        CHANNELS 3 Yrotation Xrotation Zrotation
        JOINT RightWrist
        {
         OFFSET 0.000000 -24.004700 0.000000
         CHANNELS 3 Yrotation Xrotation Zrotation
         End Site
         {
          OFFSET 0.000000 -17.728500 0.000000
         }
        }
       }
      }
     }
     JOINT LeftCollar
     {
      OFFSET 2.921100 9.558500 0.000000
      CHANNELS 3 Yrotation Xrotation Zrotation
      JOINT LeftShoulder
      {
       OFFSET 13.519700 0.000000 0.000000
       CHANNELS 3 Yrotation Xrotation Zrotation
       JOINT LeftElbow
       {
        OFFSET 0.000000 -29.696600 0.000000
        CHANNELS 3 Yrotation Xrotation Zrotation
        JOINT LeftWrist
        {
         OFFSET 0.000000 -24.004700 0.000000
         CHANNELS 3 Yrotation Xrotation Zrotation
         End Site
         {
          OFFSET 0.000000 -17.728500 0.000000
         }
        }
       }
      }
     }
    }
   }
  }
 }
 JOINT RightHip
 {
  OFFSET -7.771700 -0.012900 -0.001300
  CHANNELS 3 Yrotation Xrotation Zrotation
  JOINT RightKnee
  {
   OFFSET 0.000000 -40.869800 0.001200
   CHANNELS 3 Yrotation Xrotation Zrotation
   JOINT RightAnkle
   {
    OFFSET 0.000000 -39.717900 0.002100
    CHANNELS 3 Yrotation Xrotation Zrotation
    JOINT RightToe
    {
     OFFSET 0.000000 -4.965400 11.033500
     CHANNELS 3 Yrotation Xrotation Zrotation
     End Site
     {
      OFFSET 0.000000 -1.423100 5.872300
     }
    }
   }
  }
 }
 JOINT LeftHip
 {
  OFFSET 7.771700 -0.012900 -0.001300
  CHANNELS 3 Yrotation Xrotation Zrotation
  JOINT LeftKnee
  {
   OFFSET 0.000000 -40.869800 0.001200
   CHANNELS 3 Yrotation Xrotation Zrotation
   JOINT LeftAnkle
   {
    OFFSET 0.000000 -39.717900 0.002100
    CHANNELS 3 Yrotation Xrotation Zrotation
    JOINT LeftToe
    {
     OFFSET 0.000000 -4.965400 11.033500
     CHANNELS 3 Yrotation Xrotation Zrotation
     End Site
     {
      OFFSET 0.000000 -1.423100 5.872300
     }
    }
   }
  }
 }
}
MOTION
Frames: 9
Frame Time: 0.008333
0.000000 85.388000 0.000000 0.000000 -5.767877 0.000000 0.000000 11.653817 0.000000 0.000000 -5.885947 0.000000 0.000000 -0.000000 0.000000 0.000000 -0.000000 0.000000 0.000000 12.528835 0.000000 0.000000 0.711642 0.000000 0.000000 -0.000000 0.000000 0.000000 0.000000 -90.000000 0.000000 -2.309062 0.000000 0.000000 2.309062 0.000000 0.000000 -0.000000 0.000000 0.000000 -0.000000 90.000000 0.000000 -2.309062 0.000000 0.000000 2.309062 0.000000 0.000000 8.520406 0.000000 0.000000 1.905762 0.000000 -0.000000 -4.658285 0.000000 0.000000 -0.000000 0.000000 0.000000 8.520406 0.000000 0.000000 1.905762 0.000000 -0.000000 -4.658285 0.000000 0.000000 -0.000000 0.000000
-215.916238 56.790109 134.639707 -179.041779 -36.317964 0.259900 0.140287 20.215065 3.812444 -0.088587 2.571005 0.549832 -0.132279 4.209289 0.898833 -0.118912 17.259431 3.712765 -1.639336 17.332972 -9.216093 0.049183 -3.219778 -16.564288 0.370705 0.856724 -2.916330 -8.929685 -19.931869 -4.927643 147.069299 -31.119909 -152.504209 17.761417 -16.452010 -56.900456 -6.106956 0.333486 -0.163186 36.835151 -11.058227 -2.982845 179.152704 -41.854793 176.508790 -7.544218 -19.543508 39.107221 12.490482 -39.860147 -10.734000 -15.238291 68.499850 -17.274024 2.333972 26.152428 0.789680 -1.493102 -15.138736 11.963186 -9.872418 -38.829450 -1.013714 32.674261 69.611065 32.400895 -14.310060 7.205378 -3.818862 0.713129 -5.820922 -3.487912
-215.919664 56.791020 134.646995 -179.046357 -36.357376 0.250888 0.089495 20.273045 3.858498 -0.095055 2.589148 0.560578 -0.142491 4.237415 0.915952 -0.152352 17.303503 3.764272 -1.634968 17.312189 -9.488186 0.146667 -3.285731 -17.012991 0.340581 0.830343 -2.921962 -8.891863 -19.818258 -4.883945 147.129828 -31.132543 -152.472286 17.794620 -16.464476 -56.916490 -6.150100 0.279112 -0.132063 36.810925 -10.954259 -2.892539 179.883657 -41.504930 176.056578 -7.649810 -19.643925 39.118579 12.522573 -39.814220 -10.745560 -15.250779 68.486144 -17.247337 2.329072 26.166061 0.785024 -1.490137 -15.126813 11.964624 -9.883295 -38.790293 -0.997047 32.668738 69.605734 32.383031 -14.314964 7.223439 -3.805485 0.705682 -5.833001 -3.500351
-215.926024 56.790291 134.658361 -179.033554 -36.384096 0.244599 0.020425 20.314645 3.883975 -0.100731 2.606885 0.570697 -0.151410 4.264869 0.932029 -0.180690 17.346566 3.812182 -1.636869 17.292294 -9.741806 0.232958 -3.349300 -17.428447 0.303111 0.807675 -2.924060 -8.854407 -19.707737 -4.840362 147.199247 -31.122147 -152.447378 17.832514 -16.479270 -56.949087 -6.194391 0.236139 -0.096269 36.784761 -10.846623 -2.818206 -179.508528 -41.173949 175.678819 -7.741760 -19.742800 39.133498 12.552006 -39.778729 -10.779936 -15.249077 68.472855 -17.204463 2.313954 26.178869 0.766411 -1.479164 -15.121036 11.972602 -9.902495 -38.764444 -0.987462 32.699483 69.572685 32.389086 -14.351533 7.262472 -3.803461 0.716164 -5.848059 -3.500990
-215.927430 56.788275 134.672778 -179.069330 -36.400660 0.234384 0.032168 20.337829 3.929710 -0.103403 2.615592 0.575564 -0.185229 4.301877 0.972228 -0.205915 17.388053 3.855342 -1.623688 17.231574 -9.921540 0.302193 -3.355601 -17.856160 0.260323 0.790645 -2.922424 -8.817587 -19.603026 -4.797901 147.272947 -31.090090 -152.420045 17.872832 -16.497007 -56.990376 -6.234219 0.207265 -0.057673 36.758436 -10.743510 -2.758673 -179.007251 -40.868844 175.361294 -7.821100 -19.842326 39.153650 12.595088 -39.760862 -10.779138 -15.247755 68.433986 -17.152564 2.312865 26.242748 0.740087 -1.474855 -15.130075 11.983702 -9.900845 -38.737039 -0.935293 32.679305 69.555623 32.356954 -14.373787 7.261713 -3.805940 0.746915 -5.835303 -3.501679
-215.929895 56.788577 134.685028 -179.088078 -36.442659 0.218028 0.028379 20.385378 3.969267 -0.144572 2.635754 0.614358 -0.179771 4.320565 0.972166 -0.231632 17.427070 3.892536 -1.608727 17.181360 -10.086480 0.363627 -3.346148 -18.241252 0.212608 0.779757 -2.917608 -8.780607 -19.501924 -4.761524 147.355230 -31.047140 -152.392627 17.944119 -16.580837 -57.052700 -6.262676 0.191751 -0.019308 36.726619 -10.647023 -2.709294 -178.599223 -40.594942 175.100004 -7.896164 -19.941344 39.178411 12.601126 -39.720766 -10.758125 -15.239370 68.409756 -17.112438 2.295322 26.277582 0.708540 -1.458641 -15.124964 11.994247 -9.897883 -38.689540 -0.908611 32.667835 69.538958 32.341997 -14.367613 7.284355 -3.786395 0.741754 -5.841829 -3.518904
-215.935325 56.790337 134.695838 -179.097207 -36.500897 0.212141 -0.012285 20.449677 4.001505 -0.162184 2.645807 0.628593 -0.147088 4.326769 0.946238 -0.245187 17.445706 3.909479 -1.620279 17.204992 -10.214147 0.425869 -3.351896 -18.551742 0.129561 0.804016 -2.858849 -8.744410 -19.401789 -4.736209 147.456919 -31.004023 -152.374993 17.970172 -16.580713 -57.094504 -6.310879 0.221687 0.068168 36.689522 -10.552549 -2.668991 -178.273198 -40.350820 174.885165 -7.971559 -20.030315 39.206937 12.609931 -39.662913 -10.752543 -15.230643 68.396506 -17.078060 2.275854 26.300218 0.682722 -1.441982 -15.117034 12.004608 -9.881401 -38.627660 -0.910429 32.640018 69.523857 32.314831 -14.368253 7.306955 -3.767028 0.740031 -5.849253 -3.534978
-215.943213 56.791941 134.706961 -179.117371 -36.558793 0.226357 -0.103857 20.491981 4.021041 -0.120823 2.665509 0.601918 -0.168395 4.352094 0.970363 -0.277379 17.482153 3.944581 -1.602111 17.203256 -10.403443 0.483136 -3.336794 -18.816546 0.098717 0.805754 -2.885071 -8.710472 -19.303008 -4.720297 147.589153 -30.965659 -152.368253 17.996867 -16.592089 -57.154376 -6.294872 0.222003 0.076361 36.647449 -10.457885 -2.635862 -178.019216 -40.136118 174.702017 -8.043729 -20.104673 39.236695 12.681127 -39.598360 -10.814950 -15.204345 68.392850 -16.981234 2.286415 26.318556 0.677389 -1.457262 -15.094048 12.002070 -9.840871 -38.567220 -0.931926 32.597933 69.510725 32.276134 -14.370137 7.328654 -3.751358 0.741083 -5.856238 -3.546056
-215.948170 56.792827 134.718721 -179.146994 -36.610509 0.227430 -0.133676 20.527228 4.037680 -0.125300 2.674349 0.607001 -0.190197 4.369155 0.989371 -0.307889 17.510051 3.973639 -1.602593 17.243668 -10.587369 0.552931 -3.328182 -19.018974 0.130163 0.805693 -2.950185 -8.740340 -19.177191 -4.676089 147.758197 -30.940401 -152.368268 18.038363 -16.625840 -57.237148 -6.264848 0.244943 0.080293 36.595532 -10.369468 -2.604706 -177.819693 -39.953236 174.538284 -8.112594 -20.165165 39.266471 12.714809 -39.545135 -10.830977 -15.183974 68.375035 -16.906480 2.284397 26.345593 0.650944 -1.456570 -15.084816 12.004898 -9.813576 -38.510979 -0.924175 32.549387 69.502069 32.228803 -14.362390 7.350989 -3.741196 0.734464 -5.864525 -3.551830
